# xmcd
#
# Track frame offsets:
#	150
#	5716
#	19611
#	34664
#	52107
#	67555
#	82738
#	97215
#	118300
#	137297
#
# Disc length: 2086 seconds
#
# Revision: 0
# Processed by: cddbd v1.5.2PL0 Copyright (c) Steve Scherf et al.
# Submitted via: EasyCDDAExtractor 11.0.2.1
#
DISCID=7708240a
DTITLE=Karen - Ingen Smalle Steder (2004)
DYEAR=2004
DGENRE=R&B
TTITLE0=Tilbage
TTITLE1=På Det Beat
TTITLE2=Kolakaj
TTITLE3=Ballerina
TTITLE4=Undtagelsen
TTITLE5=Ryggen
TTITLE6=I Nat Er Vi
TTITLE7=Ønsket
TTITLE8=Nede Med Ham
TTITLE9=Strip
EXTD=YEAR: 2000 ID3G: 14\n
EXTT0=
EXTT1=
EXTT2=
EXTT3=
EXTT4=
EXTT5=
EXTT6=
EXTT7=
EXTT8=
EXTT9=
PLAYORDER=
